<svg width="117" height="117" viewBox="0 0 117 117" fill="none" xmlns="http://www.w3.org/2000/svg">
<path d="M58.5 0C50.5365 0 44.0578 6.47888 44.0578 14.4422C44.0578 22.4055 50.5367 28.8844 58.5 28.8844C66.4633 28.8844 72.9422 22.4057 72.9422 14.4422C72.9422 6.47865 66.4635 0 58.5 0ZM58.5 22.0289C54.3166 22.0289 50.9133 18.6256 50.9133 14.4422C50.9133 10.2588 54.3166 6.85547 58.5 6.85547C62.6834 6.85547 66.0867 10.259 66.0867 14.4422C66.0867 18.6254 62.6834 22.0289 58.5 22.0289ZM58.5 44.0578C50.5365 44.0578 44.0578 50.5367 44.0578 58.5C44.0578 66.4633 50.5367 72.9422 58.5 72.9422C66.4633 72.9422 72.9422 66.4633 72.9422 58.5C72.9422 50.5367 66.4635 44.0578 58.5 44.0578ZM58.5 66.0867C54.3166 66.0867 50.9133 62.6832 50.9133 58.5C50.9133 54.3168 54.3168 50.9133 58.5 50.9133C62.6832 50.9133 66.0867 54.3168 66.0867 58.5C66.0867 62.6832 62.6834 66.0867 58.5 66.0867ZM58.5 88.1156C50.5365 88.1156 44.0578 94.5943 44.0578 102.558C44.0578 110.521 50.5365 117 58.5 117C66.4635 117 72.9422 110.521 72.9422 102.558C72.9422 94.5945 66.4635 88.1156 58.5 88.1156ZM58.5 110.145C54.3166 110.145 50.9133 106.741 50.9133 102.558C50.9133 98.3746 54.3168 94.9711 58.5 94.9711C62.6832 94.9711 66.0867 98.3744 66.0867 102.558C66.0867 106.741 62.6834 110.145 58.5 110.145ZM14.4422 0C6.47888 0 0 6.47888 0 14.4422C0 22.4055 6.47888 28.8844 14.4422 28.8844C22.4055 28.8844 28.8844 22.4057 28.8844 14.4422C28.8844 6.47865 22.4057 0 14.4422 0ZM14.4422 22.0289C10.259 22.0289 6.85547 18.6256 6.85547 14.4422C6.85547 10.2588 10.259 6.85547 14.4422 6.85547C18.6254 6.85547 22.0289 10.259 22.0289 14.4422C22.0289 18.6254 18.6256 22.0289 14.4422 22.0289ZM14.4422 44.0578C6.47888 44.0578 0 50.5365 0 58.5C0 66.4635 6.47888 72.9422 14.4422 72.9422C22.4055 72.9422 28.8844 66.4633 28.8844 58.5C28.8844 50.5367 22.4057 44.0578 14.4422 44.0578ZM14.4422 66.0867C10.259 66.0867 6.85547 62.6834 6.85547 58.5C6.85547 54.3166 10.259 50.9133 14.4422 50.9133C18.6254 50.9133 22.0289 54.3168 22.0289 58.5C22.0289 62.6832 18.6256 66.0867 14.4422 66.0867ZM14.4422 88.1156C6.47888 88.1156 0 94.5943 0 102.558C0 110.521 6.47888 117 14.4422 117C22.4055 117 28.8844 110.521 28.8844 102.558C28.8844 94.5945 22.4057 88.1156 14.4422 88.1156ZM14.4422 110.145C10.259 110.145 6.85547 106.741 6.85547 102.558C6.85547 98.3746 10.259 94.9711 14.4422 94.9711C18.6254 94.9711 22.0289 98.3744 22.0289 102.558C22.0289 106.741 18.6256 110.145 14.4422 110.145ZM102.558 0C94.5945 0 88.1156 6.47888 88.1156 14.4422C88.1156 22.4055 94.5943 28.8844 102.558 28.8844C110.521 28.8844 117 22.4057 117 14.4422C117 6.47865 110.521 0 102.558 0ZM102.558 22.0289C98.3746 22.0289 94.9711 18.6256 94.9711 14.4422C94.9711 10.2588 98.3744 6.85547 102.558 6.85547C106.741 6.85547 110.145 10.259 110.145 14.4422C110.145 18.6254 106.741 22.0289 102.558 22.0289ZM102.558 44.0578C94.5943 44.0578 88.1156 50.5367 88.1156 58.5C88.1156 66.4633 94.5945 72.9422 102.558 72.9422C110.521 72.9422 117 66.4635 117 58.5C117 50.5365 110.521 44.0578 102.558 44.0578ZM102.558 66.0867C98.3744 66.0867 94.9711 62.6832 94.9711 58.5C94.9711 54.3168 98.3746 50.9133 102.558 50.9133C106.741 50.9133 110.145 54.3166 110.145 58.5C110.145 62.6834 106.741 66.0867 102.558 66.0867ZM102.558 88.1156C94.5943 88.1156 88.1156 94.5943 88.1156 102.558C88.1156 110.521 94.5945 117 102.558 117C110.521 117 117 110.521 117 102.558C117 94.5945 110.521 88.1156 102.558 88.1156ZM102.558 110.145C98.3744 110.145 94.9711 106.741 94.9711 102.558C94.9711 98.3746 98.3746 94.9711 102.558 94.9711C106.741 94.9711 110.145 98.3744 110.145 102.558C110.145 106.741 106.741 110.145 102.558 110.145Z" fill="#003458"/>
<path d="M58.5 0C50.5365 0 44.0578 6.47888 44.0578 14.4422C44.0578 22.4055 50.5367 28.8844 58.5 28.8844C66.4633 28.8844 72.9422 22.4057 72.9422 14.4422C72.9422 6.47865 66.4635 0 58.5 0ZM58.5 22.0289C54.3166 22.0289 50.9133 18.6256 50.9133 14.4422C50.9133 10.2588 54.3166 6.85547 58.5 6.85547C62.6834 6.85547 66.0867 10.259 66.0867 14.4422C66.0867 18.6254 62.6834 22.0289 58.5 22.0289ZM58.5 44.0578C50.5365 44.0578 44.0578 50.5367 44.0578 58.5C44.0578 66.4633 50.5367 72.9422 58.5 72.9422C66.4633 72.9422 72.9422 66.4633 72.9422 58.5C72.9422 50.5367 66.4635 44.0578 58.5 44.0578ZM58.5 66.0867C54.3166 66.0867 50.9133 62.6832 50.9133 58.5C50.9133 54.3168 54.3168 50.9133 58.5 50.9133C62.6832 50.9133 66.0867 54.3168 66.0867 58.5C66.0867 62.6832 62.6834 66.0867 58.5 66.0867ZM58.5 88.1156C50.5365 88.1156 44.0578 94.5943 44.0578 102.558C44.0578 110.521 50.5365 117 58.5 117C66.4635 117 72.9422 110.521 72.9422 102.558C72.9422 94.5945 66.4635 88.1156 58.5 88.1156ZM58.5 110.145C54.3166 110.145 50.9133 106.741 50.9133 102.558C50.9133 98.3746 54.3168 94.9711 58.5 94.9711C62.6832 94.9711 66.0867 98.3744 66.0867 102.558C66.0867 106.741 62.6834 110.145 58.5 110.145ZM14.4422 0C6.47888 0 0 6.47888 0 14.4422C0 22.4055 6.47888 28.8844 14.4422 28.8844C22.4055 28.8844 28.8844 22.4057 28.8844 14.4422C28.8844 6.47865 22.4057 0 14.4422 0ZM14.4422 22.0289C10.259 22.0289 6.85547 18.6256 6.85547 14.4422C6.85547 10.2588 10.259 6.85547 14.4422 6.85547C18.6254 6.85547 22.0289 10.259 22.0289 14.4422C22.0289 18.6254 18.6256 22.0289 14.4422 22.0289ZM14.4422 44.0578C6.47888 44.0578 0 50.5365 0 58.5C0 66.4635 6.47888 72.9422 14.4422 72.9422C22.4055 72.9422 28.8844 66.4633 28.8844 58.5C28.8844 50.5367 22.4057 44.0578 14.4422 44.0578ZM14.4422 66.0867C10.259 66.0867 6.85547 62.6834 6.85547 58.5C6.85547 54.3166 10.259 50.9133 14.4422 50.9133C18.6254 50.9133 22.0289 54.3168 22.0289 58.5C22.0289 62.6832 18.6256 66.0867 14.4422 66.0867ZM14.4422 88.1156C6.47888 88.1156 0 94.5943 0 102.558C0 110.521 6.47888 117 14.4422 117C22.4055 117 28.8844 110.521 28.8844 102.558C28.8844 94.5945 22.4057 88.1156 14.4422 88.1156ZM14.4422 110.145C10.259 110.145 6.85547 106.741 6.85547 102.558C6.85547 98.3746 10.259 94.9711 14.4422 94.9711C18.6254 94.9711 22.0289 98.3744 22.0289 102.558C22.0289 106.741 18.6256 110.145 14.4422 110.145ZM102.558 0C94.5945 0 88.1156 6.47888 88.1156 14.4422C88.1156 22.4055 94.5943 28.8844 102.558 28.8844C110.521 28.8844 117 22.4057 117 14.4422C117 6.47865 110.521 0 102.558 0ZM102.558 22.0289C98.3746 22.0289 94.9711 18.6256 94.9711 14.4422C94.9711 10.2588 98.3744 6.85547 102.558 6.85547C106.741 6.85547 110.145 10.259 110.145 14.4422C110.145 18.6254 106.741 22.0289 102.558 22.0289ZM102.558 44.0578C94.5943 44.0578 88.1156 50.5367 88.1156 58.5C88.1156 66.4633 94.5945 72.9422 102.558 72.9422C110.521 72.9422 117 66.4635 117 58.5C117 50.5365 110.521 44.0578 102.558 44.0578ZM102.558 66.0867C98.3744 66.0867 94.9711 62.6832 94.9711 58.5C94.9711 54.3168 98.3746 50.9133 102.558 50.9133C106.741 50.9133 110.145 54.3166 110.145 58.5C110.145 62.6834 106.741 66.0867 102.558 66.0867ZM102.558 88.1156C94.5943 88.1156 88.1156 94.5943 88.1156 102.558C88.1156 110.521 94.5945 117 102.558 117C110.521 117 117 110.521 117 102.558C117 94.5945 110.521 88.1156 102.558 88.1156ZM102.558 110.145C98.3744 110.145 94.9711 106.741 94.9711 102.558C94.9711 98.3746 98.3746 94.9711 102.558 94.9711C106.741 94.9711 110.145 98.3744 110.145 102.558C110.145 106.741 106.741 110.145 102.558 110.145Z" fill="white"/>
</svg>