<?xml version="1.0" standalone="no"?>
<!DOCTYPE svg PUBLIC "-//W3C//DTD SVG 20010904//EN"
 "http://www.w3.org/TR/2001/REC-SVG-20010904/DTD/svg10.dtd">
<svg version="1.0" xmlns="http://www.w3.org/2000/svg"
 width="1080.000000pt" height="1080.000000pt" viewBox="0 0 1080.000000 1080.000000"
 preserveAspectRatio="xMidYMid meet">

<g transform="translate(0.000000,1080.000000) scale(0.100000,-0.100000)"
fill="#003458" stroke="none">
<path d="M4825 9263 c-294 -17 -519 -45 -754 -94 -639 -133 -1114 -330 -1509
-626 -131 -98 -372 -333 -472 -461 -219 -281 -366 -576 -450 -907 -63 -248
-75 -352 -75 -660 0 -285 8 -379 52 -625 14 -80 29 -165 33 -189 8 -51 33 -75
70 -66 48 12 49 17 54 265 4 258 20 390 76 635 85 371 226 706 419 997 264
397 612 696 1076 923 574 282 1168 407 1860 392 411 -9 766 -58 1180 -162 854
-215 1509 -550 2063 -1055 267 -242 410 -447 474 -677 21 -74 22 -101 26 -566
2 -395 6 -489 16 -493 25 -10 84 23 101 56 59 114 135 367 160 535 56 374 -50
845 -273 1202 -120 193 -319 413 -512 565 -790 621 -1745 941 -3005 1008 -173
9 -485 11 -610 3z"/>
<path d="M3555 7403 c-56 -12 -177 -59 -195 -75 -26 -24 -27 -88 -2 -111 9 -9
39 -21 66 -27 98 -22 147 -66 200 -181 53 -114 81 -239 115 -505 17 -131 43
-291 59 -354 87 -342 255 -594 512 -767 105 -70 265 -132 411 -159 50 -9 100
-25 112 -34 l22 -18 0 -592 0 -592 -30 -25 c-29 -26 -30 -26 -170 -20 -77 3
-216 18 -310 32 -93 14 -262 39 -375 56 -349 51 -533 89 -766 159 -501 151
-929 415 -1230 760 -56 65 -91 97 -97 91 -6 -6 -12 -43 -15 -83 -4 -64 -1 -83
27 -153 125 -324 389 -629 694 -800 309 -175 770 -291 1332 -335 77 -6 390
-15 695 -20 555 -9 702 -17 923 -55 267 -46 485 -128 579 -218 96 -93 145
-192 173 -353 20 -115 19 -156 -6 -267 -22 -96 -23 -237 -2 -258 15 -15 100
102 161 221 128 245 176 463 137 613 -51 197 -185 312 -485 415 -204 70 -351
97 -601 111 -164 9 -198 21 -233 80 -19 32 -19 57 -20 595 -1 454 2 567 13
594 18 43 72 73 191 106 272 77 500 221 639 406 123 164 180 311 236 610 66
354 146 733 167 788 34 92 94 139 200 157 49 8 68 28 68 71 0 82 -43 115 -179
135 -153 22 -310 0 -426 -59 -74 -37 -185 -153 -227 -237 -68 -134 -84 -213
-133 -633 -33 -284 -64 -431 -131 -620 -63 -177 -91 -235 -147 -298 -60 -68
-184 -132 -233 -120 -47 12 -47 11 -43 968 2 672 0 910 -9 930 -25 60 -132 91
-240 69 -59 -12 -97 -39 -114 -81 -6 -16 -9 -356 -8 -943 1 -691 -2 -922 -11
-933 -7 -8 -30 -14 -55 -14 -36 0 -52 7 -101 46 -144 114 -238 265 -283 457
-11 45 -47 273 -80 506 -73 516 -79 545 -130 648 -99 201 -305 325 -534 322
-50 -1 -100 -3 -111 -6z"/>
<path d="M8823 5670 c-123 -64 -243 -107 -388 -138 -109 -24 -140 -26 -345
-26 -232 0 -339 10 -545 55 -117 25 -133 24 -146 -5 -17 -37 -6 -63 72 -166
259 -341 349 -539 349 -770 0 -222 -74 -385 -251 -556 -111 -106 -235 -185
-597 -379 -100 -54 -181 -100 -179 -101 2 -2 67 -8 146 -14 310 -24 594 38
787 170 123 85 246 230 308 361 53 111 68 179 73 326 8 193 -15 313 -119 640
-28 90 -49 165 -46 168 3 3 63 -4 134 -16 262 -43 503 -23 646 53 76 40 150
122 179 196 23 59 40 253 23 251 -5 0 -50 -22 -101 -49z"/>
<path d="M4915 3447 c-17 -8 -36 -26 -43 -41 -15 -34 -17 -740 -2 -986 19
-310 71 -530 177 -744 40 -83 55 -103 85 -118 57 -30 165 -34 278 -10 248 51
452 177 516 316 49 108 21 134 -155 147 -141 10 -185 20 -264 62 -105 55 -178
166 -230 347 -41 142 -49 243 -45 588 3 301 2 319 -17 357 -29 59 -86 86 -188
91 -56 3 -91 0 -112 -9z"/>
</g>
</svg>
