<svg width="64" height="64" viewBox="0 0 64 64" fill="none" xmlns="http://www.w3.org/2000/svg">
<rect width="64" height="64" rx="12" fill="#E5E0FF"/>
<path d="M56.8906 31.1562C56.8878 28.9557 56.2492 26.803 55.0517 24.9569C53.8542 23.1109 52.1487 21.6502 50.1406 20.7506V20.1874C50.1385 18.0463 49.4282 15.9661 48.1205 14.2707C46.8129 12.5754 44.9811 11.3602 42.9108 10.8144C40.8404 10.2687 38.6477 10.423 36.6742 11.2534C34.7007 12.0838 33.0573 13.5436 32 15.4055C30.9427 13.5436 29.2993 12.0838 27.3258 11.2534C25.3523 10.423 23.1595 10.2687 21.0892 10.8144C19.0188 11.3602 17.1871 12.5754 15.8794 14.2707C14.5717 15.9661 13.8615 18.0463 13.8593 20.1874V20.7506C11.8496 21.6472 10.1427 23.1067 8.94482 24.9528C7.74696 26.7988 7.1095 28.9524 7.1095 31.153C7.1095 33.3536 7.74696 35.5071 8.94482 37.3532C10.1427 39.1993 11.8496 40.6588 13.8593 41.5554V42.1249C13.8615 44.266 14.5717 46.3463 15.8794 48.0416C17.1871 49.7369 19.0188 50.9521 21.0892 51.4979C23.1595 52.0437 25.3523 51.8893 27.3258 51.0589C29.2993 50.2285 30.9427 48.7687 32 46.9069C33.0573 48.7687 34.7007 50.2285 36.6742 51.0589C38.6477 51.8893 40.8404 52.0437 42.9108 51.4979C44.9811 50.9521 46.8129 49.7369 48.1205 48.0416C49.4282 46.3463 50.1385 44.266 50.1406 42.1249V41.5554C52.1487 40.6575 53.8544 39.1981 55.052 37.353C56.2496 35.5079 56.8881 33.3559 56.8906 31.1562ZM23.5625 49.2968C21.6985 49.2977 19.9074 48.5729 18.5686 47.2759C17.2299 45.9788 16.4487 44.2116 16.3906 42.3485C17.086 42.4804 17.7922 42.5468 18.5 42.5468H20.1875C20.5231 42.5468 20.8451 42.4134 21.0824 42.1761C21.3198 41.9387 21.4531 41.6168 21.4531 41.2812C21.4531 40.9455 21.3198 40.6236 21.0824 40.3862C20.8451 40.1489 20.5231 40.0155 20.1875 40.0155H18.5C16.4088 40.0172 14.3845 39.2792 12.7851 37.9319C11.1858 36.5847 10.1145 34.7151 9.76096 32.6541C9.40739 30.593 9.79428 28.4733 10.8532 26.6701C11.9121 24.8668 13.5747 23.4963 15.5469 22.8009C15.7937 22.7136 16.0074 22.5519 16.1585 22.3381C16.3097 22.1243 16.3907 21.8689 16.3906 21.607V20.1874C16.3906 18.2853 17.1462 16.4611 18.4912 15.1161C19.8362 13.7711 21.6604 13.0155 23.5625 13.0155C25.4646 13.0155 27.2888 13.7711 28.6338 15.1161C29.9787 16.4611 30.7343 18.2853 30.7343 20.1874V35.5964C29.8266 34.5961 28.7195 33.7969 27.4843 33.2502C26.2492 32.7034 24.9132 32.4213 23.5625 32.4218C23.2268 32.4218 22.9049 32.5551 22.6675 32.7925C22.4302 33.0298 22.2968 33.3517 22.2968 33.6874C22.2968 34.0231 22.4302 34.345 22.6675 34.5823C22.9049 34.8197 23.2268 34.953 23.5625 34.953C25.4646 34.953 27.2888 35.7086 28.6338 37.0536C29.9787 38.3986 30.7343 40.2228 30.7343 42.1249C30.7343 44.027 29.9787 45.8512 28.6338 47.1962C27.2888 48.5412 25.4646 49.2968 23.5625 49.2968ZM45.5 40.0155H43.8125C43.4768 40.0155 43.1549 40.1489 42.9175 40.3862C42.6802 40.6236 42.5468 40.9455 42.5468 41.2812C42.5468 41.6168 42.6802 41.9387 42.9175 42.1761C43.1549 42.4134 43.4768 42.5468 43.8125 42.5468H45.5C46.2078 42.5468 46.914 42.4804 47.6093 42.3485C47.5654 43.7566 47.1078 45.1206 46.2935 46.2702C45.4792 47.4199 44.3444 48.3042 43.0306 48.8129C41.7169 49.3216 40.2824 49.4321 38.9063 49.1307C37.5301 48.8292 36.2732 48.1291 35.2924 47.1178C34.3117 46.1064 33.6505 44.8286 33.3914 43.4439C33.1323 42.0591 33.2868 40.6287 33.8356 39.3312C34.3844 38.0337 35.3031 36.9265 36.4772 36.1479C37.6513 35.3693 39.0287 34.9537 40.4375 34.953C40.7731 34.953 41.0951 34.8197 41.3324 34.5823C41.5698 34.345 41.7031 34.0231 41.7031 33.6874C41.7031 33.3517 41.5698 33.0298 41.3324 32.7925C41.0951 32.5551 40.7731 32.4218 40.4375 32.4218C39.0867 32.4213 37.7508 32.7034 36.5156 33.2502C35.2804 33.7969 34.1734 34.5961 33.2656 35.5964V20.1874C33.2656 18.2853 34.0212 16.4611 35.3662 15.1161C36.7112 13.7711 38.5354 13.0155 40.4375 13.0155C42.3396 13.0155 44.1638 13.7711 45.5088 15.1161C46.8537 16.4611 47.6093 18.2853 47.6093 20.1874V21.607C47.6092 21.8689 47.6903 22.1243 47.8414 22.3381C47.9925 22.5519 48.2062 22.7136 48.4531 22.8009C50.4253 23.4963 52.0879 24.8668 53.1468 26.6701C54.2057 28.4733 54.5926 30.593 54.239 32.6541C53.8854 34.7151 52.8142 36.5847 51.2148 37.9319C49.6155 39.2792 47.5911 40.0172 45.5 40.0155ZM48.4531 28.6249C48.4531 28.9606 48.3198 29.2825 48.0824 29.5198C47.8451 29.7572 47.5231 29.8905 47.1875 29.8905H46.3437C44.4416 29.8905 42.6174 29.1349 41.2724 27.7899C39.9275 26.445 39.1718 24.6208 39.1718 22.7187V21.8749C39.1718 21.5392 39.3052 21.2173 39.5425 20.98C39.7799 20.7426 40.1018 20.6093 40.4375 20.6093C40.7731 20.6093 41.0951 20.7426 41.3324 20.98C41.5698 21.2173 41.7031 21.5392 41.7031 21.8749V22.7187C41.7031 23.9494 42.192 25.1298 43.0623 26.0001C43.9326 26.8704 45.113 27.3593 46.3437 27.3593H47.1875C47.5231 27.3593 47.8451 27.4926 48.0824 27.73C48.3198 27.9673 48.4531 28.2892 48.4531 28.6249ZM17.6562 29.8905H16.8125C16.4768 29.8905 16.1549 29.7572 15.9175 29.5198C15.6802 29.2825 15.5469 28.9606 15.5469 28.6249C15.5469 28.2892 15.6802 27.9673 15.9175 27.73C16.1549 27.4926 16.4768 27.3593 16.8125 27.3593H17.6562C18.887 27.3593 20.0674 26.8704 20.9376 26.0001C21.8079 25.1298 22.2968 23.9494 22.2968 22.7187V21.8749C22.2968 21.5392 22.4302 21.2173 22.6675 20.98C22.9049 20.7426 23.2268 20.6093 23.5625 20.6093C23.8981 20.6093 24.2201 20.7426 24.4574 20.98C24.6948 21.2173 24.8281 21.5392 24.8281 21.8749V22.7187C24.8281 24.6208 24.0725 26.445 22.7275 27.7899C21.3825 29.1349 19.5583 29.8905 17.6562 29.8905Z" fill="#6D52FF"/>
</svg>
