<svg width="64" height="64" viewBox="0 0 64 64" fill="none" xmlns="http://www.w3.org/2000/svg">
<rect width="64" height="64" rx="12" fill="#C7FFC6"/>
<g clip-path="url(#clip0_52_20)">
<path d="M18.4531 8.225C18.2 8.34687 17.8906 8.54375 17.7781 8.66562C17.4688 9.0125 17.1875 9.6875 17.1875 10.1281V10.5312H14.1875C11.3844 10.5312 11.1406 10.5406 10.5969 10.7281C9.5375 11.0844 8.77813 11.8062 8.35625 12.875C8.15938 13.3625 8.14062 13.5594 8.1125 16.1094C8.08437 18.7719 8.08437 18.8375 8.28125 19.0906C8.50625 19.3812 8.96563 19.4375 9.275 19.2125C9.44375 19.0906 9.45312 18.9125 9.5 16.325C9.54688 13.7469 9.55625 13.5594 9.74375 13.2031C9.9875 12.7625 10.3813 12.35 10.7375 12.1625L11 12.0219V29.675C11 39.3875 11.0281 47.5531 11.0656 47.825C11.1406 48.5187 11.5813 49.2125 12.1625 49.5781L12.6219 49.8594L18.9406 49.8875L25.2594 49.9062L25.4281 50.3094C26.375 52.5031 26.8531 53.5156 27.1906 54.0031L27.5938 54.5938H19.5219C13.6625 54.5938 11.3469 54.5656 11.0844 54.4812C10.6063 54.3406 10.0156 53.8344 9.75313 53.3375L9.54688 52.9531L9.5 37.4187C9.44375 20.1969 9.50938 21.5938 8.84375 21.575C8.60938 21.5656 8.46875 21.6312 8.30938 21.8187L8.09375 22.0812L8.1125 37.6062L8.14062 53.1406L8.35625 53.6844C8.66563 54.4437 9.44375 55.2594 10.2313 55.6437L10.8594 55.9531H25.4844H40.1094L40.6813 55.7469L41.2531 55.5312L41.8063 55.7281C42.2281 55.8875 42.65 55.9437 43.5781 55.9719C44.6938 56.0188 44.8156 56 45.0312 55.8312C45.3406 55.5781 45.35 55.0156 45.0406 54.7719C44.8625 54.6219 44.6656 54.5938 43.9156 54.5938C43.4188 54.5938 42.9219 54.5656 42.8094 54.5375C42.6125 54.4812 42.6125 54.4719 42.9406 54.0219C43.2781 53.5437 44.3375 51.2656 44.8063 49.9719L45.0781 49.25H48.1813C51.1813 49.25 51.2938 49.2406 51.5375 49.0531C51.8469 48.8094 51.875 48.3125 51.5938 48.0312C51.4156 47.8531 51.2844 47.8438 48.5 47.8438C46.9062 47.8438 45.5938 47.8156 45.5938 47.7687C45.5938 47.7312 45.6594 47.3937 45.7531 47.0187L45.9125 46.3438H48.5938C51.1813 46.3438 51.2938 46.3344 51.5375 46.1469C51.8469 45.9031 51.875 45.4062 51.5938 45.125C51.4156 44.9469 51.2844 44.9375 48.7719 44.9375H46.1375L46.1938 44.7219C46.2219 44.6094 46.25 44.2719 46.25 43.9812V43.4469L48.8188 43.4187C51.1906 43.3906 51.4062 43.3812 51.5844 43.2125C51.8375 42.9781 51.8469 42.4719 51.5938 42.2187C51.4156 42.0406 51.2844 42.0312 48.8281 42.0312H46.25L46.2031 41.7781C45.9313 40.4375 45.5938 39.65 44.9281 38.825C43.8125 37.4375 42.0594 36.4062 40.5219 36.2469L39.9688 36.1906V35.5531V34.9062H47.2344H54.5V43.1094C54.5 48.8187 54.4719 51.4531 54.3969 51.8C54.1625 52.9062 53.4781 53.7594 52.4375 54.2562L51.8281 54.5469L49.8031 54.575C47.9375 54.6031 47.7594 54.6219 47.5719 54.7906C47.3 55.0437 47.3094 55.5594 47.5813 55.8125C47.7688 55.9906 47.9 56 49.6344 56C51.7344 56 52.2031 55.9344 53.1688 55.4656C54.3406 54.9125 55.2875 53.7969 55.6906 52.4844C55.85 51.95 55.8594 51.2656 55.8594 38.7969C55.8594 24.0969 55.9156 25.3344 55.175 23.8906C54.8938 23.3281 54.5375 22.9344 52.7 21.1156L50.5625 18.9969V17.8156C50.5625 16.5406 50.4969 16.25 50.1125 15.8375C49.6531 15.35 49.4375 15.3125 47.1875 15.3125C44.9094 15.3125 44.6844 15.35 44.2531 15.8656C43.9062 16.2875 43.8125 16.7094 43.8125 17.9375V19.025L43.3531 19.475L42.8844 19.9344L42.8563 16.6625C42.8281 13.5031 42.8188 13.3719 42.6125 12.8469C42.1906 11.8156 41.3656 11.0281 40.3156 10.6812C39.9406 10.5594 39.3594 10.5312 36.8281 10.5312H33.7813V10.1937C33.7813 9.29375 33.1156 8.34687 32.3188 8.1125C32.0281 8.02812 30.2844 8 25.4281 8H18.9219L18.4531 8.225ZM32.1406 9.64062C32.3656 9.85625 32.375 9.90312 32.375 11.2812C32.375 12.6594 32.3656 12.7062 32.1406 12.9219L31.9156 13.1562H25.4844H19.0531L18.8281 12.9219C18.6031 12.7062 18.5938 12.6594 18.5938 11.2812C18.5938 9.90312 18.6031 9.85625 18.8281 9.64062L19.0531 9.40625H25.4844H31.9156L32.1406 9.64062ZM17.1875 12.3219C17.1875 12.5375 17.2438 12.8844 17.3 13.1C17.45 13.6062 18.1438 14.3 18.65 14.45C19.1656 14.6 31.775 14.6094 32.3188 14.4594C32.7969 14.3281 33.5188 13.6062 33.6688 13.1C33.725 12.8844 33.7813 12.5375 33.7813 12.3219V11.9375H36.1719H38.5625V24.1062V36.2656L37.8594 36.4906C37.475 36.6031 36.8938 36.8656 36.575 37.0625L35.9844 37.4187L35.8813 36.4531C35.6188 34.1469 34.85 32.3562 33.5188 30.9406L33.0031 30.4062H34.3344C36.0031 30.4062 36.3125 30.2844 36.3125 29.6187C36.3125 29.5062 36.2188 29.3187 36.0969 29.2062C35.8906 29.0094 35.7969 29.0094 33.3125 28.9812L30.7344 28.9531L30.125 28.6719C29.3563 28.325 28.5875 28.3062 27.9969 28.6062C27.7812 28.7187 27.5844 28.85 27.5469 28.9062C27.5094 28.9625 26.4688 29 24.6406 29H21.7906L21.6031 29.2437C21.3781 29.525 21.3594 29.6469 21.5094 29.9656C21.6969 30.3687 21.9313 30.4062 24.4438 30.4062H26.8156L26.8813 31.0531C27.0031 32.4406 27.5938 34.2031 28.3906 35.6C28.625 36.0125 28.8031 36.35 28.7844 36.3687C28.775 36.3781 28.5312 36.4812 28.25 36.5938C27.9688 36.7062 27.5469 36.8937 27.3219 37.025C26.9188 37.25 26.8813 37.25 24.4813 37.25C22.5313 37.25 21.9969 37.2781 21.7906 37.3906C21.3594 37.6062 21.2844 38.0094 21.6031 38.4125L21.7906 38.6562H23.525H25.25L24.875 39.2281C24.3594 40.0344 24.2656 40.3531 24.4531 40.7094C24.6313 41.0562 24.9969 41.1781 25.3344 40.9906C25.4656 40.9156 25.7094 40.6062 25.8875 40.2969C26.4875 39.2188 27.6406 38.3 28.925 37.8687C29.7969 37.5781 29.9469 37.5687 30.1813 37.8219C30.8094 38.525 32.5719 39.4531 33.9688 39.8281C35.1594 40.1375 35.3375 40.1375 35.6375 39.7531C36.8094 38.3375 38.15 37.625 39.6781 37.625C41.1031 37.625 42.275 38.1312 43.3531 39.2094C44.1313 39.9875 44.5438 40.7187 44.75 41.675C44.9375 42.5094 44.8156 44.8438 44.5344 46.0625C44.0656 48.0406 43.3531 50.0469 42.3688 52.1094C41.7875 53.3375 41.3 53.9187 40.5406 54.2844L40.0156 54.5469H35.0469H30.0781L29.5813 54.2844C28.5969 53.7687 28.0625 52.9625 27.0312 50.45C26.0844 48.1625 25.4656 45.8844 25.2969 44.1406C25.2125 43.2406 25.175 43.1562 24.8469 43.0156C24.4813 42.8656 24.1063 42.9781 23.9375 43.3062C23.8344 43.4937 23.8344 43.7187 23.9281 44.5906C24.0313 45.4531 24.5469 47.8344 24.7531 48.3687C24.7906 48.4812 23.9281 48.5 18.8938 48.5H12.9969L12.7625 48.2656C12.6313 48.1344 12.5 47.9 12.4625 47.7406C12.4344 47.5719 12.4062 39.4531 12.4062 29.6937V11.9375H14.7969H17.1875V12.3219ZM40.7938 12.6031C41.4313 13.2594 41.4219 13.1656 41.45 17.4688L41.4781 21.3594L40.7188 22.1094L39.9688 22.8594V17.4406V12.0219L40.2313 12.1625C40.3813 12.2375 40.625 12.4344 40.7938 12.6031ZM49.1375 17.6844L49.1656 18.5938L47.2156 18.575L45.2656 18.5469L45.2375 17.7594C45.2188 17.3281 45.2281 16.9156 45.2563 16.8406C45.3031 16.7375 45.6781 16.7188 47.2063 16.7375L49.1094 16.7656L49.1375 17.6844ZM51.7063 22.1281C53.8719 24.3031 54.125 24.6312 54.35 25.55L54.4062 25.8125H47.1969H39.9875L40.0813 25.4562C40.325 24.5844 40.6344 24.1812 42.7156 22.0812L44.7875 20H47.1875H49.5875L51.7063 22.1281ZM54.5 30.3594V33.5H47.2344H39.9688V30.3594V27.2187H47.2344H54.5V30.3594ZM29.8531 30.0687C32.8813 31.3812 34.5313 34.0625 34.5313 37.6812C34.5313 38.6187 34.5406 38.6187 33.3969 38.1781C30.875 37.2031 29.1313 34.9719 28.4281 31.8125C28.1844 30.6969 28.1938 30.2656 28.4844 29.9844C28.7844 29.675 28.9719 29.6844 29.8531 30.0687Z" fill="#62BA60"/>
<path d="M15.6125 18.9781C15.3688 19.1 15.0969 19.3438 14.9563 19.5594C14.7219 19.9156 14.7032 20.0094 14.675 21.2375C14.6469 22.4187 14.6563 22.5781 14.8532 22.9625C14.9938 23.2531 15.2 23.4875 15.4813 23.6656C15.9032 23.9281 15.9407 23.9375 17.2063 23.9375C18.6782 23.9375 18.95 23.8625 19.4188 23.3375C19.8125 22.8875 19.8594 22.6812 19.8594 21.3594C19.8594 20.0375 19.8125 19.8312 19.4188 19.3812C18.9594 18.8562 18.6782 18.7812 17.2625 18.7812C16.175 18.7812 15.9594 18.8094 15.6125 18.9781ZM18.4063 20.3656C18.4532 20.4687 18.5 20.9187 18.5 21.3594C18.5 22.5406 18.5094 22.5312 17.3 22.5312C16.6344 22.5312 16.25 22.4937 16.175 22.4187C16.025 22.2687 16.025 20.45 16.175 20.3C16.25 20.225 16.6344 20.1875 17.3 20.1875C18.2 20.1875 18.3125 20.2062 18.4063 20.3656Z" fill="#62BA60"/>
<path d="M21.6406 20.8906C21.5094 21.0125 21.4062 21.2281 21.4062 21.3594C21.4062 21.4906 21.5094 21.7062 21.6406 21.8281L21.8656 22.0625H28.8594H35.8531L36.0781 21.8281C36.2094 21.7062 36.3125 21.4906 36.3125 21.3594C36.3125 21.2281 36.2094 21.0125 36.0781 20.8906L35.8531 20.6562H28.8594H21.8656L21.6406 20.8906Z" fill="#62BA60"/>
<path d="M16.2031 27.0688C16.1562 27.0969 15.9969 27.1344 15.8562 27.1625C15.4906 27.2469 15.0312 27.6688 14.8344 28.1094C14.5813 28.6531 14.5813 30.6594 14.8344 31.2031C15.2281 32.0563 15.7437 32.2812 17.3 32.2812C18.6219 32.2812 19.0625 32.1406 19.4656 31.6156C19.8219 31.1469 19.9344 30.5469 19.8875 29.3938C19.8406 28.1563 19.6344 27.6875 18.9687 27.3125C18.5937 27.1063 18.425 27.0781 17.4219 27.0594C16.8031 27.05 16.2594 27.05 16.2031 27.0688ZM18.3312 28.5969C18.4719 28.7188 18.5 28.8969 18.5 29.6656C18.5 30.8656 18.4906 30.875 17.2437 30.875C16.625 30.875 16.25 30.8375 16.175 30.7625C16.1 30.6875 16.0625 30.3031 16.0625 29.6375C16.0625 28.7844 16.0906 28.625 16.2312 28.5406C16.3156 28.4844 16.7844 28.4375 17.2719 28.4375C17.9656 28.4375 18.1906 28.475 18.3312 28.5969Z" fill="#62BA60"/>
<path d="M15.7344 35.5063C15.3406 35.6844 14.8531 36.2188 14.75 36.6031C14.6937 36.7719 14.6562 37.4281 14.6562 38.0469C14.6562 38.9469 14.6937 39.2469 14.8344 39.5563C15.2094 40.3813 16.0156 40.6813 17.6281 40.5969C19.325 40.5125 19.8125 40.0156 19.8875 38.3C19.9625 36.6781 19.6812 35.9375 18.8281 35.5531C18.5281 35.4125 18.2187 35.375 17.2344 35.3844C16.4187 35.3844 15.9219 35.4219 15.7344 35.5063ZM18.4062 36.9594C18.4531 37.0625 18.5 37.5219 18.5 37.9906C18.5 39.1813 18.4344 39.2469 17.1781 39.2C16.475 39.1813 16.2219 39.1344 16.1562 39.0313C16.025 38.825 16.0344 37.0344 16.175 36.8938C16.25 36.8188 16.6344 36.7813 17.3 36.7813C18.2 36.7813 18.3125 36.8 18.4062 36.9594Z" fill="#62BA60"/>
</g>
<defs>
<clipPath id="clip0_52_20">
<rect width="48" height="48" fill="white" transform="translate(8 8)"/>
</clipPath>
</defs>
</svg>