<svg width="64" height="64" viewBox="0 0 64 64" fill="none" xmlns="http://www.w3.org/2000/svg">
<rect width="64" height="64" rx="12" fill="#ADF4FF"/>
<path d="M10 7.85205V10.7231L11.0814 10.7519C12.0193 10.7901 12.2203 10.8284 12.6988 11.0581C13.3113 11.3548 13.7611 11.8237 14.0578 12.4554C14.2492 12.886 14.2588 13.0679 14.3162 18.3985C14.3641 23.5187 14.3832 23.9589 14.5746 24.7149C15.79 29.7489 19.9053 33.2899 24.9871 33.6728L25.791 33.7397V30.8495V27.9688H25.5326C25.3795 27.9688 24.968 27.9019 24.5947 27.8253C22.652 27.4138 20.9676 25.8921 20.3168 23.9493C20.1158 23.3464 20.1062 23.1454 20.0488 17.7765C19.9914 12.4458 19.9818 12.197 19.7809 11.4601C18.9387 8.40713 16.6131 6.08154 13.5889 5.27764C13.0434 5.13408 12.4213 5.05752 11.4164 5.02881L10 4.98096V7.85205Z" fill="#3ABFD5"/>
<path d="M25.791 6.4164V7.82324L27.2266 9.25879L28.6621 10.6943V28.9449C28.6621 42.1902 28.6334 47.3391 28.5568 47.7027C28.375 48.5258 27.9922 49.2148 27.3701 49.8465C26.7002 50.526 25.992 50.8896 25.035 51.0523L24.3555 51.1672V52.5836V54H31.5332H38.7109V52.5836V51.1672L38.0506 51.0523C36.2609 50.7461 34.8732 49.4254 34.5096 47.7027C34.433 47.3391 34.4043 41.9988 34.4043 28.9449V10.6943L35.8398 9.25879L37.2754 7.82324V6.4164V5H31.5332H25.791V6.4164Z" fill="#3ABFD5"/>
<path d="M50.0613 5.15322C47.3338 5.68916 45.1326 7.36397 43.9268 9.81397C43.075 11.5462 43.0846 11.4601 43.0176 17.7765C42.9602 23.155 42.9602 23.3464 42.7496 23.9493C42.0988 25.9017 40.424 27.4138 38.4717 27.8253C38.108 27.9019 37.6869 27.9688 37.5434 27.9688H37.2754V30.8495V33.7397L38.0984 33.6728C42.6922 33.3187 46.683 30.237 48.1281 25.9399C48.6928 24.2651 48.6832 24.3321 48.7502 18.3985C48.8076 13.0679 48.8172 12.886 49.0086 12.4554C49.3053 11.8237 49.7551 11.3548 50.3676 11.0581C50.8461 10.8284 51.0471 10.7901 51.9945 10.7519L53.0664 10.7231V7.86162V5.0001L51.8988 5.00967C51.248 5.00967 50.425 5.07666 50.0613 5.15322Z" fill="#3ABFD5"/>
</svg>