<svg version="1.1" id="Layer_1" xmlns="http://www.w3.org/2000/svg" xmlns:xlink="http://www.w3.org/1999/xlink" x="0px" y="0px"
	 width="605px" height="605px" viewBox="0 0 605 605" enable-background="new 0 0 605 605" xml:space="preserve">

<path fill="#4b8d81" d="M302,103.83c-92.969,0-168.335,75.366-168.335,168.335v96.851h35.393c0.007,0.597-0.056,1.021-0.05,6.347
	c6.51,77.413,71.396,138.216,150.492,138.216c81.246,0,147.497-64.151,150.892-144.563h0.002v-0.062
	c0.034-0.817,0.072-1.634,0.094-2.454h0.052v-115C460.351,168.281,387.972,103.83,302,103.83z"/>
<circle fill="#FFFFFF" cx="170.5" cy="253.307" r="16.971"/>
<path fill="#FFFFFF" d="M328,172.239c36.318,0,65.761,29.442,65.761,65.761h30.698c0-52.721-42.738-95.459-95.459-95.459
	S233.541,185.279,233.541,238h28.699C262.239,201.681,291.681,172.239,328,172.239z"/>
<path fill="#FFFFFF" d="M297.499,303.761c-36.318,0-65.761-29.442-65.761-65.761H201.04c0,52.721,42.738,95.459,95.459,95.459
	s95.46-42.738,95.46-95.459H363.26C363.26,274.318,333.818,303.761,297.499,303.761z"/>
<path fill="#FFFFFF" d="M359.612,236.5c0-17.183-13.93-31.113-31.112-31.113s-31.113,13.93-31.113,31.113
	c0,0.503,0.014,1.003,0.038,1.5h-31.5c-0.023,0.497-0.038,0.997-0.038,1.5c0,17.184,13.93,31.113,31.112,31.113
	s31.113-13.93,31.113-31.113c0-0.503-0.015-1.003-0.038-1.5h31.5C359.598,237.503,359.612,237.003,359.612,236.5z"/>
</svg>