<svg version="1.0" xmlns="http://www.w3.org/2000/svg"
 width="512.000000pt" height="512.000000pt" viewBox="0 0 512.000000 512.000000"
 preserveAspectRatio="xMidYMid meet">

<g transform="translate(55.000000,470.000000) scale(0.080000,-0.080000)" fill="#fff" stroke="none">

<path d="M290 4973 l0 -149 71 -12 c173 -30 309 -148 360 -313 18 -56 19 -98
19 -567 0 -649 12 -771 97 -1015 104 -300 317 -590 573 -781 129 -96 398 -236
454 -236 14 0 16 46 16 453 l0 453 -83 65 c-90 71 -161 158 -212 259 -71 140
-68 113 -75 765 -7 565 -8 593 -29 663 -75 253 -261 447 -509 530 -75 25 -86
26 -379 30 l-303 4 0 -149z"/>
<path d="M1730 4972 l0 -148 66 -11 c173 -30 325 -169 368 -338 14 -52 16
-269 16 -1906 0 -1195 -4 -1865 -10 -1900 -34 -183 -186 -329 -375 -362 l-65
-11 0 -148 0 -148 830 0 830 0 0 148 0 148 -64 11 c-36 6 -90 23 -121 37 -68
31 -165 122 -205 191 -64 111 -60 -13 -60 2016 0 1195 4 1865 10 1900 34 183
186 329 375 362 l65 11 0 148 0 148 -830 0 -830 0 0 -148z"/>
<path d="M4215 5105 c-230 -51 -416 -198 -521 -410 -79 -161 -76 -138 -83
-800 -6 -582 -7 -591 -29 -654 -57 -160 -138 -274 -259 -370 l-83 -65 0 -453
c0 -403 2 -453 16 -453 22 0 179 66 254 108 221 121 449 329 583 532 161 244
249 491 277 775 5 55 10 330 10 612 0 473 1 516 19 572 51 165 188 283 362
313 l69 12 0 148 0 148 -277 -1 c-193 0 -296 -5 -338 -14z"/>
</g>
</svg>